<?xml version="1.0" standalone="no"?>
<!DOCTYPE svg PUBLIC "-//W3C//DTD SVG 20010904//EN"
 "http://www.w3.org/TR/2001/REC-SVG-20010904/DTD/svg10.dtd">
<svg version="1.0" xmlns="http://www.w3.org/2000/svg"
 width="80.000000pt" height="40.000000pt" viewBox="0 0 1206.000000 608.000000"
 preserveAspectRatio="xMidYMid meet">
<metadata>
Created by potrace 1.16, written by Peter Selinger 2001-2019
</metadata>
<g transform="translate(0.000000,608.000000) scale(0.100000,-0.100000)"
fill="current" stroke="current">
<path d="M5826 6009 c-728 -56 -1447 -342 -2021 -803 -521 -419 -887 -936
-1041 -1470 -75 -261 -96 -562 -54 -801 10 -60 18 -110 17 -111 -1 -1 -69 -32
-152 -69 -208 -93 -759 -366 -940 -466 -765 -419 -1262 -812 -1434 -1130 -76
-141 -146 -434 -139 -579 10 -201 111 -293 348 -319 52 -5 109 -19 148 -36 35
-14 111 -37 170 -50 547 -124 1402 13 2981 476 l305 90 141 -60 c699 -299
1379 -430 2071 -400 1167 51 2147 593 2681 1484 204 339 349 753 410 1165 8
54 9 56 63 85 30 16 282 136 559 267 563 266 893 432 1116 563 406 237 668
458 803 675 25 41 63 95 83 120 72 88 84 123 84 240 0 101 -1 108 -38 182 -20
43 -64 113 -97 157 -81 107 -295 328 -339 350 -66 34 -226 79 -333 95 -131 20
-381 20 -540 1 -398 -47 -835 -161 -1715 -448 l-439 -143 -120 94 c-589 461
-1262 749 -1934 827 -170 19 -488 27 -644 14z m5579 -663 c200 -33 328 -81
363 -138 249 -402 -861 -1269 -2978 -2326 -2483 -1241 -5380 -2269 -7075
-2512 -505 -72 -952 -72 -1215 1 -174 47 -342 159 -356 237 -19 98 44 258 162
415 260 346 936 854 1629 1224 284 152 548 263 625 263 18 0 8 -126 -11 -146
-9 -8 -45 -18 -85 -22 -68 -8 -73 -10 -243 -126 -516 -351 -847 -610 -1087
-850 -151 -151 -204 -217 -256 -318 -28 -54 -33 -73 -33 -135 0 -57 4 -77 21
-100 47 -64 149 -109 304 -135 97 -17 533 -16 700 0 418 42 587 69 990 157
1335 293 2631 732 4279 1451 183 80 199 89 165 92 -67 4 -166 22 -241 44 l-73
21 0 96 0 97 -54 53 c-53 52 -55 53 -88 42 -44 -15 -110 -70 -139 -118 -17
-27 -25 -59 -29 -113 l-5 -75 -172 -3 c-95 -1 -173 -5 -173 -8 0 -2 14 -32 31
-65 17 -34 29 -62 27 -64 -3 -4 -963 -195 -977 -195 -5 0 -15 25 -22 55 -14
64 -19 69 -44 51 -18 -13 -16 -18 23 -111 24 -54 41 -99 40 -100 -2 -2 -107
-55 -234 -118 l-230 -115 -73 146 -73 147 -23 -29 c-25 -31 -35 -74 -35 -153
l0 -53 -240 -120 c-132 -66 -242 -120 -245 -120 -3 0 -5 65 -5 145 0 144 0
145 -22 145 -22 0 -23 -4 -24 -85 -4 -199 -72 -324 -228 -420 -36 -22 -68 -48
-71 -58 -4 -10 -30 -41 -58 -70 -120 -123 -274 -145 -491 -73 l-73 25 -139
-55 c-339 -135 -740 -250 -1024 -295 -114 -18 -187 -23 -340 -24 -212 0 -297
12 -432 62 -60 22 -72 31 -84 59 -18 44 -18 141 1 194 60 170 302 368 763 624
204 113 516 276 529 276 6 0 13 -42 17 -94 21 -302 115 -493 296 -599 50 -29
174 -72 235 -81 37 -5 33 -3 -37 34 -57 29 -84 51 -106 82 -40 58 -76 132 -97
198 -9 30 -39 102 -65 160 -57 126 -77 199 -92 343 -25 243 43 562 177 831
161 321 382 541 633 629 71 25 107 32 196 35 65 3 131 -1 167 -8 l59 -13 0
-241 0 -241 -107 0 c-103 0 -111 -2 -183 -36 -95 -46 -161 -104 -220 -196 -82
-125 -131 -276 -150 -461 -29 -277 47 -560 177 -659 l36 -27 56 30 56 31 3
181 2 182 -160 0 -160 0 0 73 c0 94 20 159 72 237 150 225 535 318 698 168 37
-34 45 -63 99 -363 6 -33 9 117 10 441 l1 490 45 41 c96 86 247 130 409 120
115 -7 175 -28 230 -80 40 -39 59 -79 237 -494 107 -248 195 -450 196 -449 2
2 -9 106 -23 232 -24 210 -34 260 -120 606 -52 208 -94 384 -94 391 0 7 21 20
48 28 46 15 47 16 44 52 l-4 37 114 0 c111 0 117 1 278 55 90 30 168 55 172
55 4 0 8 -232 8 -515 l0 -515 120 60 120 60 26 -53 c15 -28 27 -53 29 -54 1
-2 34 8 73 21 l72 25 20 -37 19 -37 1 565 0 566 39 38 c22 22 41 50 43 64 3
22 10 27 58 37 67 14 139 50 208 104 28 23 53 41 55 41 2 0 12 -18 22 -40 l18
-40 86 0 86 0 275 -481 c243 -424 276 -477 282 -453 14 55 28 253 28 414 l0
165 -177 176 c-98 97 -206 195 -241 218 l-63 42 23 18 c13 10 121 66 240 124
l217 105 3 38 3 39 244 82 243 82 -5 -37 c-4 -20 -9 -52 -13 -69 l-6 -32 102
34 c57 19 105 37 107 39 3 2 -3 16 -13 30 -9 15 -15 28 -13 30 10 9 310 156
319 156 5 0 43 -66 84 -147 l74 -148 7 60 c30 244 150 365 393 398 77 10 83
13 101 43 52 87 231 168 549 249 253 63 627 122 917 145 77 5 156 12 175 14
19 2 172 3 340 1 220 -2 333 -7 405 -19z m-2697 -2682 c28 -9 52 -21 52 -27 0
-12 -311 -1109 -316 -1116 -3 -4 -132 29 -150 38 -8 4 -1 41 22 121 18 63 33
117 33 120 0 3 -16 -25 -35 -62 -19 -38 -39 -68 -44 -68 -9 0 -129 57 -138 65
-4 4 306 625 318 638 4 5 18 3 30 -3 17 -9 24 -9 30 -1 4 7 26 82 50 167 50
176 32 161 148 128z m-497 -319 l70 -36 -162 -317 c-89 -174 -164 -319 -166
-321 -2 -3 -33 9 -69 27 -73 36 -74 37 -74 20 -1 -35 -15 -37 -90 -18 -41 11
-76 20 -77 20 -2 0 -3 -40 -3 -90 l0 -90 -85 0 -85 0 2 243 3 242 83 3 82 3 1
-143 1 -143 72 285 c40 157 75 297 79 311 l7 27 77 -20 c43 -11 79 -21 81 -23
1 -1 -26 -119 -62 -261 -36 -142 -64 -260 -63 -261 2 -1 68 128 147 287 80
160 148 290 153 290 4 0 39 -16 78 -35z m-891 -880 l245 -245 -85 0 -85 0
-157 157 -158 158 0 -78 0 -77 77 0 78 0 -78 -78 -77 -77 0 -83 0 -82 -82 0
-83 0 -82 -82 -81 -81 -161 320 c-88 177 -157 323 -154 327 4 3 39 6 80 6 l73
0 157 -236 158 -237 3 304 c1 167 4 310 7 317 3 8 29 12 82 12 l77 0 246 -245z
m-1210 -165 l0 -80 -80 0 -80 0 80 -161 81 -161 139 4 c182 4 174 -4 178 178
l4 140 -81 0 -81 0 0 80 0 80 80 0 80 0 0 -77 0 -78 82 -82 83 -83 -160 -160
-160 -160 -85 0 -85 0 -158 315 c-86 173 -157 317 -157 320 0 3 72 5 160 5
l160 0 0 -80z m-577 -228 c122 -82 228 -152 235 -156 7 -4 -21 60 -62 143 -42
83 -76 153 -76 156 0 3 37 5 82 3 l81 -3 80 -239 79 -238 -81 -82 -81 -81
-156 155 -156 155 77 -154 77 -154 -81 -81 c-44 -44 -83 -77 -87 -74 -3 4 -41
148 -85 320 -66 263 -78 326 -79 396 0 45 2 82 5 82 3 0 105 -67 228 -148z
m-308 -322 c43 -171 76 -313 73 -315 -2 -2 -74 138 -161 311 l-157 314 84 0
84 0 77 -310z"/>
<path d="M9870 5020 c-243 -16 -788 -84 -845 -107 -12 -4 -15 -34 -15 -159 0
-85 2 -154 5 -154 3 0 62 16 133 36 477 134 885 211 1172 221 195 6 303 -8
389 -52 60 -30 78 -51 90 -105 36 -160 -114 -329 -527 -593 -207 -132 -1098
-645 -1106 -636 -1 2 -37 240 -78 529 l-76 525 -1 -611 -1 -611 -39 -31 c-65
-52 -120 -76 -187 -80 -78 -5 -123 9 -201 65 l-63 44 0 246 0 245 -192 319
c-105 175 -194 316 -197 313 -3 -3 -40 -141 -83 -307 l-77 -302 255 -255 254
-255 -130 -130 -130 -130 -144 72 -144 72 -6 -35 c-16 -81 -100 -317 -150
-419 -30 -60 -77 -138 -105 -172 l-51 -61 213 97 c868 400 2080 995 2263 1111
683 435 1009 789 945 1026 -36 133 -226 229 -531 270 -143 18 -460 25 -640 14z"/>
<path d="M7863 4287 c-17 -7 -35 -15 -39 -19 -4 -4 -28 -113 -54 -243 l-47
-235 31 -23 c17 -13 49 -36 71 -52 l40 -29 -39 42 -39 41 63 248 c35 136 65
256 68 266 5 20 -9 21 -55 4z"/>
<path d="M7036 3233 c109 -216 202 -393 205 -393 3 0 13 6 22 13 14 11 -7 52
-197 385 -118 205 -217 376 -221 380 -5 4 81 -170 191 -385z"/>
<path d="M7717 3328 c-8 -162 -37 -341 -76 -456 -16 -48 -28 -88 -26 -90 1 -2
19 36 39 83 38 91 87 245 131 409 l27 99 -44 44 -45 45 -6 -134z"/>
<path d="M6565 2845 c-84 -56 -125 -103 -125 -142 0 -14 -18 -43 -41 -68 l-42
-45 79 0 79 0 33 70 c41 87 121 168 206 210 l61 29 -85 0 -85 0 -80 -54z"/>
<path d="M4500 2503 l0 -153 40 0 40 0 0 78 c-1 70 -5 84 -40 152 l-39 75 -1
-152z"/>
<path d="M5850 2398 c-135 -55 -234 -97 -220 -94 14 2 133 26 265 52 132 26
242 49 244 50 5 4 -30 84 -38 88 -3 2 -116 -42 -251 -96z"/>
<path d="M5069 2103 c-69 -70 -76 -80 -66 -100 5 -13 15 -23 21 -22 6 0 47 19
92 42 l81 42 -26 58 -26 58 -76 -78z"/>
</g>
</svg>
